<svg width="241" height="59" viewBox="0 0 241 59" fill="none" xmlns="http://www.w3.org/2000/svg">
<g clip-path="url(#clip0_101_26)">
<path d="M46.9093 58.9111H11.7956C5.30468 58.9111 0 53.5823 0 47.074V11.8358C0 5.32342 5.30468 0 11.7956 0H46.9093C53.3935 0 58.7049 5.32342 58.7049 11.8371V47.0753C58.7049 53.5823 53.3949 58.9124 46.9093 58.9124V58.9111Z" fill="#FEC200"/>
<path d="M36.26 19.422C35.8517 19.5639 36.0056 20.0486 36.4341 20.0419L38.654 19.9937L34.2142 31.9393L30.0235 24.2072C28.6551 21.6834 26.1876 20.1088 23.404 19.9067H22.1575C20.5669 20.0161 19.043 20.5886 17.7738 21.5535C16.5045 22.5185 15.5454 23.8338 15.0145 25.3372L8.17549 44.1874C8.16448 44.2167 8.16072 44.2482 8.16453 44.2793C8.16833 44.3104 8.17959 44.34 8.19734 44.3658C8.21509 44.3916 8.23882 44.4127 8.26648 44.4273C8.29415 44.442 8.32495 44.4497 8.35624 44.4498H18.5961C18.6764 44.4498 18.75 44.3963 18.7768 44.3213L23.076 32.4507L27.2466 40.1493C28.8091 43.036 31.8136 44.6922 35.0738 44.4565C38.3393 44.2276 41.0814 42.1751 42.2355 39.0929L49.3637 19.9067L51.2355 14.6716C51.2476 14.6369 51.2497 14.5994 51.2415 14.5636C51.2333 14.5277 51.2152 14.4949 51.1892 14.4689C51.1632 14.4429 51.1304 14.4247 51.0945 14.4165C51.0586 14.4083 51.0212 14.4104 50.9865 14.4226L36.26 19.422Z" fill="white"/>
<path opacity="0.3" d="M15.0072 25.3318L8.17354 44.186C8.16253 44.2153 8.15877 44.2468 8.16257 44.2779C8.16638 44.309 8.17764 44.3387 8.19539 44.3644C8.21314 44.3902 8.23686 44.4113 8.26453 44.4259C8.2922 44.4406 8.32299 44.4483 8.35429 44.4485H18.5954C18.6758 44.4485 18.7494 44.3949 18.7762 44.3199L23.074 32.4493L27.246 40.1479C28.6144 42.6717 31.0752 44.253 33.8588 44.4551H35.0785L22.1556 19.9053C18.8699 20.1476 16.1346 22.2269 15.0072 25.3291V25.3318Z" fill="#FEC200"/>
<path d="M18.2395 31.441L13.4851 44.1939C13.4741 44.2232 13.4703 44.2548 13.4741 44.2858C13.4779 44.3169 13.4892 44.3466 13.5069 44.3723C13.5247 44.3981 13.5484 44.4192 13.5761 44.4339C13.6037 44.4485 13.6345 44.4562 13.6658 44.4564H18.6023C18.6826 44.4564 18.7563 44.4028 18.783 44.3278L23.0809 32.4572L22.216 31.105C21.3243 29.6991 18.8553 29.8933 18.2395 31.441Z" fill="white"/>
<path opacity="0.3" d="M39.06 32.9755L43.8024 20.5252C43.8251 20.4662 43.8332 20.4026 43.826 20.3399C43.8187 20.2771 43.7964 20.217 43.7609 20.1647C43.7253 20.1125 43.6776 20.0696 43.6219 20.0398C43.5662 20.01 43.5041 19.9942 43.4409 19.9937H38.6517L34.2119 31.966L35.0768 33.3183C35.9752 34.7188 38.4441 34.5233 39.06 32.9755V32.9755Z" fill="#FEC200"/>
<path d="M96.5659 34.9771L79.5393 18.4592C78.2057 17.1632 76.1063 16.7133 74.2038 17.3185C72.3012 17.925 71.0654 19.4232 71.0654 21.1437V41.8509H77.1333V23.9326L94.1599 40.4505C95.1025 41.3622 96.4226 41.8576 97.783 41.8576C98.352 41.8576 98.9344 41.7733 99.4967 41.5899C101.398 40.9847 102.635 39.4865 102.635 37.766V17.3319H96.5672V34.9771H96.5659ZM106.791 23.5483V41.3368H112.86V23.5483C112.86 22.8186 113.593 22.1987 114.455 22.1987H134.882V17.0708H114.455C110.231 17.0708 106.791 19.9775 106.791 23.5483Z" fill="#FEC200"/>
<path d="M134.882 26.8715H115.228V31.9994H134.882V26.8715ZM140.03 22.1987H152.094V41.3449H158.162V22.1987H170.226V17.0708H140.03V22.1987ZM179.724 31.9084V26.8514C179.724 24.2914 182.189 22.2054 185.217 22.2054H203.114V17.0775H185.217C178.842 17.0775 173.657 21.4637 173.657 26.8514V31.9084C173.657 37.2961 178.842 41.6823 185.217 41.6823H196.359V36.5543H185.217C182.189 36.5476 179.724 34.4683 179.724 31.9084Z" fill="#FEC200"/>
<path d="M197.132 26.8125H185.847V31.9404H197.132C197.989 31.9404 198.708 32.3957 198.708 32.9366V41.3421H204.776V32.9379C204.776 29.5559 201.35 26.8125 197.132 26.8125Z" fill="#FEC200"/>
<path d="M228.588 17.293H221.056C214.21 17.293 208.646 22.0045 208.646 27.7899V31.1853C208.646 36.9706 214.21 41.6822 221.056 41.6822H228.588C235.435 41.6822 241 36.9706 241 31.1853V27.7899C241 21.9978 235.435 17.293 228.588 17.293ZM234.939 31.1853C234.939 34.1429 232.093 36.5542 228.595 36.5542H221.062C217.564 36.5542 214.72 34.1496 214.72 31.1853V27.7899C214.72 24.8309 217.564 22.4209 221.062 22.4209H228.595C232.093 22.4209 234.939 24.8256 234.939 27.7899V31.1853Z" fill="#FEC200"/>
</g>
<defs>
<clipPath id="clip0_101_26">
<rect width="241" height="58.9111" fill="white"/>
</clipPath>
</defs>
</svg>
